PathFileType	4	(x/y/z)	S06_P20_T62
DataRate	CameraRate	NumFrames	NumMarkers	Units	OrigDataRate	OrigDataStartFrame	OrigNumFrames
240	240	6	51	mm	240	44	347
Frame#	Time	Sternum			R.Acromium			L.Acromium			Top.Head			R.ASIS			L.ASIS			R.PSIS			L.PSIS			R.Great.Tro			L.Great.Tro			R.Iliac.Crest			L.Iliac.Crest			V.Sacral			R.Thigh.Upper.Post			R.Thigh.Lower.Ant			R.Thigh.Lower.Post			R.Thigh.Upper.Ant			R.Knee.Lat			R.Knee.Med			R.Shank.Upper.Post			R.Shank.Lower.Ant			R.Shank.Lower.Post			R.Shank.Upper.Ant			R.Ankle.Lat			R.Ankle.Med			R.Heel.Upper			R.Heel.Med			R.Heel.Lat			R.Toe.Lat			R.Toe.Med			R.Toe.Tip			L.Thigh.Upper.Post			L.Thigh.Lower.Ant			L.Thigh.Lower.Post			L.Thigh.Upper.Ant			L.Knee.Lat			L.Knee.Med			L.Shank.Upper.Post			L.Shank.Lower.Ant			L.Shank.Lower.Post			L.Shank.Upper.Ant			L.Ankle.Lat			L.Ankle.Med			L.Heel.Upper			L.Heel.Med			L.Heel.Lat			L.Toe.Lat			L.Toe.Med			L.Toe.Tip			Cervical.Spine			Back			
		X1	Y1	Z1	X2	Y2	Z2	X3	Y3	Z3	X4	Y4	Z4	X5	Y5	Z5	X6	Y6	Z6	X7	Y7	Z7	X8	Y8	Z8	X9	Y9	Z9	X10	Y10	Z10	X11	Y11	Z11	X12	Y12	Z12	X13	Y13	Z13	X14	Y14	Z14	X15	Y15	Z15	X16	Y16	Z16	X17	Y17	Z17	X18	Y18	Z18	X19	Y19	Z19	X20	Y20	Z20	X21	Y21	Z21	X22	Y22	Z22	X23	Y23	Z23	X24	Y24	Z24	X25	Y25	Z25	X26	Y26	Z26	X27	Y27	Z27	X28	Y28	Z28	X29	Y29	Z29	X30	Y30	Z30	X31	Y31	Z31	X32	Y32	Z32	X33	Y33	Z33	X34	Y34	Z34	X35	Y35	Z35	X36	Y36	Z36	X37	Y37	Z37	X38	Y38	Z38	X39	Y39	Z39	X40	Y40	Z40	X41	Y41	Z41	X42	Y42	Z42	X43	Y43	Z43	X44	Y44	Z44	X45	Y45	Z45	X46	Y46	Z46	X47	Y47	Z47	X48	Y48	Z48	X49	Y49	Z49	X50	Y50	Z50	X51	Y51	Z51	

44	0.17917	-1030.3	1278.9	320.12	-1149.8	1488.7	490.6	-1155.9	1491.7	137.82	-1165.4	1806	310.52	NaN	NaN	NaN	NaN	NaN	NaN	-1291.3	1070.5	339.1	-1292	1077	259.42	-1155.2	971.51	486.95	-1168.9	980.66	129.55	-1182.4	1119.4	470.94	-1151.7	1121.9	151.7	-1307.6	1040.5	301.15	-1096.5	727.54	496.68	-1023.4	659.73	468.03	-1087.9	639.45	482.62	-1029.8	750.93	476.96	-1058.7	534.92	473.07	-1031.7	535.24	343.57	-1237.8	407.05	463.15	-1248	318.47	432.32	-1294.4	356.7	445.13	-1188.9	368.21	455.18	-1375.2	249.15	421.31	-1355.5	241.02	330.12	-1439.1	285.84	369.78	-1455.6	263.59	337.12	-1455.9	261.45	400.6	-1375	102.32	433.58	-1351.6	94.884	316.09	-1301.5	45.384	360.92	-1062.4	724.25	153.68	-1007.2	656.16	221.08	-1067.2	635.38	173.76	-1008.5	749	196.72	-1067	542.29	191.31	-1052	553.25	311.81	-1114.4	317	199.18	-1051.2	254.4	208.81	-1122.2	245.48	215.84	-1047	324.71	197.14	-1082.6	105.59	221.98	-1080.3	109.13	314.72	-1161.1	70.588	260.6	-1158.1	43.203	292.61	-1152.4	45.289	230.93	-971.48	46.226	203.85	-958.66	49.331	322.77	-885.38	65.065	275.71	-1210.5	1544.6	316.38	-1279.5	1275.5	314.86
45	0.18333	-1025.4	1279.1	320.3	-1144.9	1489.1	490.56	-1150.4	1492	137.76	-1160	1806.4	310.4	NaN	NaN	NaN	NaN	NaN	NaN	-1286.5	1070.9	338.93	-1287.4	1077.5	259.2	-1150.4	971.89	486.89	-1164.1	981.15	129.35	-1177.8	1119.6	470.89	-1146.5	1122.3	151.61	-1302.9	1040.9	300.92	-1088.5	728.84	496.87	-1014.6	662.06	468.04	-1078.7	640.87	482.79	-1022.2	753.16	476.97	-1048.2	536.85	473.31	-1021.7	537.44	343.57	-1227.2	409	463.81	-1237.9	320.21	432.2	-1284	358.75	445.85	-1178	370.13	455.4	-1364.7	251.53	421.96	-1345.3	242.93	330.81	-1428.8	287.64	370.27	-1445.4	265.16	337.79	-1445.7	263.49	401.32	-1364.2	104.93	435.27	-1341.1	96.663	317.85	-1290.7	46.835	362.89	-1059	724.26	153.52	-1004.1	655.9	220.9	-1064.3	635.42	173.59	-1005	748.72	196.51	-1064.5	542.25	191.21	-1049.5	553.21	311.7	-1113.2	317.13	199.2	-1050.3	254.23	208.78	-1121.4	245.68	215.91	-1045.7	324.5	197.08	-1082.4	105.64	222.02	-1080.1	109.18	314.76	-1161.1	70.717	260.62	-1158	43.255	292.63	-1152.4	45.368	230.93	-971.46	46.187	203.8	-958.49	49.13	322.75	-885.32	64.73	275.72	-1205.3	1545	316.24	-1274.6	1276	314.58
46	0.1875	-1020.5	1279.3	320.48	-1140.1	1489.4	490.53	-1144.9	1492.3	137.71	-1154.6	1806.7	310.28	NaN	NaN	NaN	NaN	NaN	NaN	-1281.7	1071.2	338.75	-1282.9	1077.9	258.98	-1145.6	972.32	486.86	-1159.3	981.64	129.17	-1173.2	1119.8	470.84	-1141.2	1122.7	151.53	-1298.2	1041.3	300.7	-1080.5	730.22	497.01	-1005.8	664.47	468.04	-1069.7	642.39	482.9	-1014.6	755.46	476.96	-1037.8	538.88	473.48	-1011.8	539.72	343.52	-1216.6	410.81	464.38	-1227.6	321.9	432.15	-1273.7	360.61	446.47	-1167.1	372	455.58	-1353.9	253.61	422.55	-1334.9	244.54	331.45	-1418.4	288.96	370.66	-1435	266.17	338.38	-1435.5	265.01	401.97	-1352.9	107.32	437.01	-1330	98.199	319.65	-1279.2	48.314	364.94	-1055.6	724.27	153.37	-1001.1	655.63	220.71	-1061.4	635.46	173.43	-1001.5	748.43	196.29	-1062.2	542.22	191.12	-1047	553.17	311.6	-1112	317.26	199.24	-1049.4	254.07	208.74	-1120.5	245.88	216	-1044.5	324.3	197.02	-1082.2	105.69	222.06	-1080	109.24	314.78	-1161.1	70.842	260.64	-1158	43.313	292.65	-1152.3	45.45	230.94	-971.44	46.154	203.75	-958.34	48.954	322.73	-885.26	64.428	275.73	-1200.1	1545.5	316.11	-1269.7	1276.5	314.31
47	0.19167	-1015.6	1279.5	320.68	-1135.3	1489.8	490.52	-1139.5	1492.6	137.67	-1149.1	1807.1	310.16	NaN	NaN	NaN	NaN	NaN	NaN	-1276.8	1071.6	338.58	-1278.4	1078.4	258.76	-1140.7	972.8	486.83	-1154.4	982.13	129.01	-1168.7	1120.1	470.79	-1135.7	1123	151.45	-1293.5	1041.7	300.49	-1072.7	731.68	497.09	-997.14	666.95	468.04	-1060.8	644	482.95	-1007.2	757.8	476.92	-1027.5	540.98	473.6	-1002.2	542.08	343.43	-1205.9	412.49	464.87	-1217	323.54	432.17	-1263.3	362.26	447	-1156.1	373.8	455.73	-1343	255.37	423.09	-1324.3	245.84	332.06	-1407.9	289.8	370.98	-1424.4	266.65	338.89	-1425.2	266	402.55	-1341.1	109.46	438.79	-1318.3	99.484	321.48	-1267.1	49.796	367.04	-1052.3	724.28	153.24	-998.19	655.35	220.52	-1058.6	635.51	173.29	-998.04	748.13	196.08	-1059.8	542.19	191.04	-1044.5	553.13	311.5	-1111	317.4	199.3	-1048.6	253.92	208.7	-1119.8	246.09	216.1	-1043.3	324.1	196.96	-1082.1	105.75	222.1	-1079.9	109.29	314.78	-1161.1	70.964	260.67	-1158	43.378	292.67	-1152.3	45.534	230.96	-971.42	46.123	203.7	-958.2	48.795	322.71	-885.21	64.153	275.74	-1194.9	1545.9	315.99	-1264.9	1277	314.05
48	0.19583	-1010.8	1279.7	320.88	-1130.5	1490.2	490.52	-1134.1	1492.9	137.65	-1143.5	1807.5	310.04	NaN	NaN	NaN	-1057.6	1046.9	187.94	-1271.9	1072	338.42	-1273.9	1079	258.53	-1135.9	973.34	486.82	-1149.6	982.62	128.89	-1164.1	1120.4	470.75	-1130.1	1123.3	151.38	-1288.8	1042.1	300.29	-1064.9	733.2	497.13	-988.57	669.5	468.03	-1052	645.68	482.95	-999.8	760.2	476.87	-1017.4	543.16	473.66	-992.67	544.49	343.31	-1195.4	414.03	465.28	-1206.1	325.09	432.29	-1252.9	363.71	447.44	-1145.2	375.54	455.86	-1331.8	256.8	423.57	-1313.5	246.82	332.64	-1397.3	290.17	371.22	-1413.7	266.61	339.33	-1414.7	266.48	403.08	-1328.8	111.34	440.6	-1306.1	100.52	323.32	-1254.4	51.261	369.19	-1049.1	724.3	153.12	-995.3	655.06	220.32	-1055.8	635.56	173.17	-994.63	747.82	195.86	-1057.6	542.17	190.98	-1042.1	553.07	311.41	-1109.9	317.54	199.36	-1047.8	253.79	208.67	-1119	246.3	216.22	-1042.2	323.91	196.9	-1081.9	105.82	222.13	-1079.8	109.35	314.77	-1161.1	71.084	260.69	-1158	43.452	292.7	-1152.3	45.621	230.97	-971.4	46.093	203.66	-958.07	48.647	322.69	-885.16	63.899	275.74	-1189.7	1546.4	315.89	-1260	1277.6	313.8
49	0.2	-1005.9	1280	321.09	-1125.7	1490.6	490.52	-1128.8	1493.2	137.64	-1137.9	1807.9	309.92	-1073.2	1041.5	440.98	-1053.6	1047.4	187.98	-1267	1072.5	338.26	-1269.4	1079.5	258.31	-1131.1	973.94	486.82	-1144.9	983.1	128.79	-1159.5	1120.8	470.7	-1124.3	1123.6	151.31	-1284.1	1042.5	300.09	-1057.3	734.79	497.13	-980.12	672.1	468.02	-1043.3	647.43	482.9	-992.51	762.63	476.81	-1007.4	545.4	473.68	-983.32	546.94	343.17	-1184.8	415.42	465.62	-1195.1	326.54	432.51	-1242.5	364.93	447.79	-1134.3	377.21	455.96	-1320.4	257.9	424.01	-1302.4	247.47	333.2	-1386.5	290.08	371.39	-1402.8	266.05	339.72	-1404.2	266.45	403.56	-1316.1	112.96	442.41	-1293.4	101.31	325.15	-1241.2	52.691	371.38	-1045.9	724.31	153.02	-992.45	654.76	220.13	-1053.2	635.61	173.06	-991.27	747.49	195.64	-1055.5	542.15	190.93	-1039.7	553.01	311.33	-1108.9	317.69	199.44	-1047.1	253.67	208.64	-1118.3	246.51	216.34	-1041.1	323.73	196.84	-1081.7	105.89	222.17	-1079.7	109.41	314.75	-1161.2	71.202	260.72	-1158	43.535	292.72	-1152.3	45.713	230.99	-971.38	46.063	203.61	-957.97	48.505	322.68	-885.11	63.659	275.74	-1184.5	1546.9	315.81	-1255.1	1278.2	313.57
